<svg width="341" height="75" viewBox="0 0 341 75" fill="none" xmlns="http://www.w3.org/2000/svg">
<path d="M13.4375 13.5V59H4.0625V13.5H13.4375ZM40.6875 13.5L22.6562 35.9688L12.25 47.1562L10.5625 38.2812L17.5938 28.6562L29.1875 13.5H40.6875ZM30.0312 59L16.625 37.9688L23.5625 32.1562L41.125 59H30.0312ZM58.9375 59.625C56.3125 59.625 53.9583 59.2083 51.875 58.375C49.7917 57.5208 48.0208 56.3438 46.5625 54.8438C45.125 53.3438 44.0208 51.6042 43.25 49.625C42.4792 47.625 42.0938 45.5 42.0938 43.25V42C42.0938 39.4375 42.4583 37.0938 43.1875 34.9688C43.9167 32.8438 44.9583 31 46.3125 29.4375C47.6875 27.875 49.3542 26.6771 51.3125 25.8438C53.2708 24.9896 55.4792 24.5625 57.9375 24.5625C60.3333 24.5625 62.4583 24.9583 64.3125 25.75C66.1667 26.5417 67.7188 27.6667 68.9688 29.125C70.2396 30.5833 71.1979 32.3333 71.8438 34.375C72.4896 36.3958 72.8125 38.6458 72.8125 41.125V44.875H45.9375V38.875H63.9688V38.1875C63.9688 36.9375 63.7396 35.8229 63.2812 34.8438C62.8438 33.8438 62.1771 33.0521 61.2812 32.4688C60.3854 31.8854 59.2396 31.5938 57.8438 31.5938C56.6562 31.5938 55.6354 31.8542 54.7812 32.375C53.9271 32.8958 53.2292 33.625 52.6875 34.5625C52.1667 35.5 51.7708 36.6042 51.5 37.875C51.25 39.125 51.125 40.5 51.125 42V43.25C51.125 44.6042 51.3125 45.8542 51.6875 47C52.0833 48.1458 52.6354 49.1354 53.3438 49.9688C54.0729 50.8021 54.9479 51.4479 55.9688 51.9062C57.0104 52.3646 58.1875 52.5938 59.5 52.5938C61.125 52.5938 62.6354 52.2812 64.0312 51.6562C65.4479 51.0104 66.6667 50.0417 67.6875 48.75L72.0625 53.5C71.3542 54.5208 70.3854 55.5 69.1562 56.4375C67.9479 57.375 66.4896 58.1458 64.7812 58.75C63.0729 59.3333 61.125 59.625 58.9375 59.625ZM93.5 59.625C90.875 59.625 88.5208 59.2083 86.4375 58.375C84.3542 57.5208 82.5833 56.3438 81.125 54.8438C79.6875 53.3438 78.5833 51.6042 77.8125 49.625C77.0417 47.625 76.6562 45.5 76.6562 43.25V42C76.6562 39.4375 77.0208 37.0938 77.75 34.9688C78.4792 32.8438 79.5208 31 80.875 29.4375C82.25 27.875 83.9167 26.6771 85.875 25.8438C87.8333 24.9896 90.0417 24.5625 92.5 24.5625C94.8958 24.5625 97.0208 24.9583 98.875 25.75C100.729 26.5417 102.281 27.6667 103.531 29.125C104.802 30.5833 105.76 32.3333 106.406 34.375C107.052 36.3958 107.375 38.6458 107.375 41.125V44.875H80.5V38.875H98.5312V38.1875C98.5312 36.9375 98.3021 35.8229 97.8438 34.8438C97.4062 33.8438 96.7396 33.0521 95.8438 32.4688C94.9479 31.8854 93.8021 31.5938 92.4062 31.5938C91.2188 31.5938 90.1979 31.8542 89.3438 32.375C88.4896 32.8958 87.7917 33.625 87.25 34.5625C86.7292 35.5 86.3333 36.6042 86.0625 37.875C85.8125 39.125 85.6875 40.5 85.6875 42V43.25C85.6875 44.6042 85.875 45.8542 86.25 47C86.6458 48.1458 87.1979 49.1354 87.9062 49.9688C88.6354 50.8021 89.5104 51.4479 90.5312 51.9062C91.5729 52.3646 92.75 52.5938 94.0625 52.5938C95.6875 52.5938 97.1979 52.2812 98.5938 51.6562C100.01 51.0104 101.229 50.0417 102.25 48.75L106.625 53.5C105.917 54.5208 104.948 55.5 103.719 56.4375C102.51 57.375 101.052 58.1458 99.3438 58.75C97.6354 59.3333 95.6875 59.625 93.5 59.625ZM121.5 31.6875V72H112.5V25.1875H120.844L121.5 31.6875ZM142.906 41.7188V42.375C142.906 44.8333 142.615 47.1146 142.031 49.2188C141.469 51.3229 140.635 53.1562 139.531 54.7188C138.427 56.2604 137.052 57.4688 135.406 58.3438C133.781 59.1979 131.906 59.625 129.781 59.625C127.719 59.625 125.927 59.2083 124.406 58.375C122.885 57.5417 121.604 56.375 120.562 54.875C119.542 53.3542 118.719 51.5938 118.094 49.5938C117.469 47.5938 116.99 45.4479 116.656 43.1562V41.4375C116.99 38.9792 117.469 36.7292 118.094 34.6875C118.719 32.625 119.542 30.8438 120.562 29.3438C121.604 27.8229 122.875 26.6458 124.375 25.8125C125.896 24.9792 127.677 24.5625 129.719 24.5625C131.865 24.5625 133.75 24.9688 135.375 25.7812C137.021 26.5938 138.396 27.7604 139.5 29.2812C140.625 30.8021 141.469 32.6146 142.031 34.7188C142.615 36.8229 142.906 39.1562 142.906 41.7188ZM133.875 42.375V41.7188C133.875 40.2812 133.75 38.9583 133.5 37.75C133.271 36.5208 132.896 35.4479 132.375 34.5312C131.875 33.6146 131.208 32.9062 130.375 32.4062C129.562 31.8854 128.573 31.625 127.406 31.625C126.177 31.625 125.125 31.8229 124.25 32.2188C123.396 32.6146 122.698 33.1875 122.156 33.9375C121.615 34.6875 121.208 35.5833 120.938 36.625C120.667 37.6667 120.5 38.8438 120.438 40.1562V44.5C120.542 46.0417 120.833 47.4271 121.312 48.6562C121.792 49.8646 122.531 50.8229 123.531 51.5312C124.531 52.2396 125.844 52.5938 127.469 52.5938C128.656 52.5938 129.656 52.3333 130.469 51.8125C131.281 51.2708 131.938 50.5312 132.438 49.5938C132.958 48.6562 133.323 47.5729 133.531 46.3438C133.76 45.1146 133.875 43.7917 133.875 42.375Z" fill="#6437FC"/>
<path d="M172.75 47.0938C172.75 46.2812 172.625 45.5521 172.375 44.9062C172.146 44.2396 171.708 43.6354 171.062 43.0938C170.417 42.5312 169.51 41.9792 168.344 41.4375C167.177 40.8958 165.667 40.3333 163.812 39.75C161.75 39.0833 159.792 38.3333 157.938 37.5C156.104 36.6667 154.479 35.6979 153.062 34.5938C151.667 33.4688 150.562 32.1667 149.75 30.6875C148.958 29.2083 148.562 27.4896 148.562 25.5312C148.562 23.6354 148.979 21.9167 149.812 20.375C150.646 18.8125 151.812 17.4792 153.312 16.375C154.812 15.25 156.583 14.3854 158.625 13.7812C160.688 13.1771 162.948 12.875 165.406 12.875C168.76 12.875 171.688 13.4792 174.188 14.6875C176.688 15.8958 178.625 17.5521 180 19.6562C181.396 21.7604 182.094 24.1667 182.094 26.875H172.781C172.781 25.5417 172.5 24.375 171.938 23.375C171.396 22.3542 170.562 21.5521 169.438 20.9688C168.333 20.3854 166.938 20.0938 165.25 20.0938C163.625 20.0938 162.271 20.3438 161.188 20.8438C160.104 21.3229 159.292 21.9792 158.75 22.8125C158.208 23.625 157.938 24.5417 157.938 25.5625C157.938 26.3333 158.125 27.0312 158.5 27.6562C158.896 28.2812 159.479 28.8646 160.25 29.4062C161.021 29.9479 161.969 30.4583 163.094 30.9375C164.219 31.4167 165.521 31.8854 167 32.3438C169.479 33.0938 171.656 33.9375 173.531 34.875C175.427 35.8125 177.01 36.8646 178.281 38.0312C179.552 39.1979 180.51 40.5208 181.156 42C181.802 43.4792 182.125 45.1562 182.125 47.0312C182.125 49.0104 181.74 50.7812 180.969 52.3438C180.198 53.9062 179.083 55.2292 177.625 56.3125C176.167 57.3958 174.427 58.2188 172.406 58.7812C170.385 59.3438 168.125 59.625 165.625 59.625C163.375 59.625 161.156 59.3333 158.969 58.75C156.781 58.1458 154.792 57.2396 153 56.0312C151.229 54.8229 149.812 53.2812 148.75 51.4062C147.688 49.5312 147.156 47.3125 147.156 44.75H156.562C156.562 46.1667 156.781 47.3646 157.219 48.3438C157.656 49.3229 158.271 50.1146 159.062 50.7188C159.875 51.3229 160.833 51.7604 161.938 52.0312C163.062 52.3021 164.292 52.4375 165.625 52.4375C167.25 52.4375 168.583 52.2083 169.625 51.75C170.688 51.2917 171.469 50.6562 171.969 49.8438C172.49 49.0312 172.75 48.1146 172.75 47.0938ZM186.5 42.4375V41.7812C186.5 39.3021 186.854 37.0208 187.562 34.9375C188.271 32.8333 189.302 31.0104 190.656 29.4688C192.01 27.9271 193.677 26.7292 195.656 25.875C197.635 25 199.906 24.5625 202.469 24.5625C205.031 24.5625 207.312 25 209.312 25.875C211.312 26.7292 212.99 27.9271 214.344 29.4688C215.719 31.0104 216.76 32.8333 217.469 34.9375C218.177 37.0208 218.531 39.3021 218.531 41.7812V42.4375C218.531 44.8958 218.177 47.1771 217.469 49.2812C216.76 51.3646 215.719 53.1875 214.344 54.75C212.99 56.2917 211.323 57.4896 209.344 58.3438C207.365 59.1979 205.094 59.625 202.531 59.625C199.969 59.625 197.688 59.1979 195.688 58.3438C193.708 57.4896 192.031 56.2917 190.656 54.75C189.302 53.1875 188.271 51.3646 187.562 49.2812C186.854 47.1771 186.5 44.8958 186.5 42.4375ZM195.5 41.7812V42.4375C195.5 43.8542 195.625 45.1771 195.875 46.4062C196.125 47.6354 196.521 48.7188 197.062 49.6562C197.625 50.5729 198.354 51.2917 199.25 51.8125C200.146 52.3333 201.24 52.5938 202.531 52.5938C203.781 52.5938 204.854 52.3333 205.75 51.8125C206.646 51.2917 207.365 50.5729 207.906 49.6562C208.448 48.7188 208.844 47.6354 209.094 46.4062C209.365 45.1771 209.5 43.8542 209.5 42.4375V41.7812C209.5 40.4062 209.365 39.1146 209.094 37.9062C208.844 36.6771 208.438 35.5938 207.875 34.6562C207.333 33.6979 206.615 32.9479 205.719 32.4062C204.823 31.8646 203.74 31.5938 202.469 31.5938C201.198 31.5938 200.115 31.8646 199.219 32.4062C198.344 32.9479 197.625 33.6979 197.062 34.6562C196.521 35.5938 196.125 36.6771 195.875 37.9062C195.625 39.1146 195.5 40.4062 195.5 41.7812ZM233.562 11V59H224.531V11H233.562ZM252.5 52.4375L260 25.1875H269.406L258 59H252.312L252.5 52.4375ZM247.344 25.1875L254.875 52.4688L255.031 59H249.312L237.906 25.1875H247.344ZM288.562 59.625C285.938 59.625 283.583 59.2083 281.5 58.375C279.417 57.5208 277.646 56.3438 276.188 54.8438C274.75 53.3438 273.646 51.6042 272.875 49.625C272.104 47.625 271.719 45.5 271.719 43.25V42C271.719 39.4375 272.083 37.0938 272.812 34.9688C273.542 32.8438 274.583 31 275.938 29.4375C277.312 27.875 278.979 26.6771 280.938 25.8438C282.896 24.9896 285.104 24.5625 287.562 24.5625C289.958 24.5625 292.083 24.9583 293.938 25.75C295.792 26.5417 297.344 27.6667 298.594 29.125C299.865 30.5833 300.823 32.3333 301.469 34.375C302.115 36.3958 302.438 38.6458 302.438 41.125V44.875H275.562V38.875H293.594V38.1875C293.594 36.9375 293.365 35.8229 292.906 34.8438C292.469 33.8438 291.802 33.0521 290.906 32.4688C290.01 31.8854 288.865 31.5938 287.469 31.5938C286.281 31.5938 285.26 31.8542 284.406 32.375C283.552 32.8958 282.854 33.625 282.312 34.5625C281.792 35.5 281.396 36.6042 281.125 37.875C280.875 39.125 280.75 40.5 280.75 42V43.25C280.75 44.6042 280.938 45.8542 281.312 47C281.708 48.1458 282.26 49.1354 282.969 49.9688C283.698 50.8021 284.573 51.4479 285.594 51.9062C286.635 52.3646 287.812 52.5938 289.125 52.5938C290.75 52.5938 292.26 52.2812 293.656 51.6562C295.073 51.0104 296.292 50.0417 297.312 48.75L301.688 53.5C300.979 54.5208 300.01 55.5 298.781 56.4375C297.573 57.375 296.115 58.1458 294.406 58.75C292.698 59.3333 290.75 59.625 288.562 59.625ZM327.531 51.625V11H336.594V59H328.438L327.531 51.625ZM306.156 42.5V41.8438C306.156 39.2604 306.448 36.9167 307.031 34.8125C307.615 32.6875 308.469 30.8646 309.594 29.3438C310.719 27.8229 312.104 26.6458 313.75 25.8125C315.396 24.9792 317.271 24.5625 319.375 24.5625C321.354 24.5625 323.083 24.9792 324.562 25.8125C326.062 26.6458 327.333 27.8333 328.375 29.375C329.438 30.8958 330.292 32.6979 330.938 34.7812C331.583 36.8438 332.052 39.1042 332.344 41.5625V43C332.052 45.3542 331.583 47.5417 330.938 49.5625C330.292 51.5833 329.438 53.3542 328.375 54.875C327.333 56.375 326.062 57.5417 324.562 58.375C323.062 59.2083 321.312 59.625 319.312 59.625C317.208 59.625 315.333 59.1979 313.688 58.3438C312.062 57.4896 310.688 56.2917 309.562 54.75C308.458 53.2083 307.615 51.3958 307.031 49.3125C306.448 47.2292 306.156 44.9583 306.156 42.5ZM315.156 41.8438V42.5C315.156 43.8958 315.26 45.1979 315.469 46.4062C315.698 47.6146 316.062 48.6875 316.562 49.625C317.083 50.5417 317.75 51.2604 318.562 51.7812C319.396 52.2812 320.406 52.5312 321.594 52.5312C323.135 52.5312 324.406 52.1875 325.406 51.5C326.406 50.7917 327.167 49.8229 327.688 48.5938C328.229 47.3646 328.542 45.9479 328.625 44.3438V40.25C328.562 38.9375 328.375 37.7604 328.062 36.7188C327.771 35.6562 327.333 34.75 326.75 34C326.188 33.25 325.479 32.6667 324.625 32.25C323.792 31.8333 322.802 31.625 321.656 31.625C320.49 31.625 319.49 31.8958 318.656 32.4375C317.823 32.9583 317.146 33.6771 316.625 34.5938C316.125 35.5104 315.75 36.5938 315.5 37.8438C315.271 39.0729 315.156 40.4062 315.156 41.8438Z" fill="#49E180"/>
</svg>
